<svg width="200" height="200" viewBox="0 0 200 200" xmlns="http://www.w3.org/2000/svg">
  <!-- Background circle -->
  <circle cx="100" cy="100" r="90" fill="url(#gradient)" stroke="#2563eb" stroke-width="3"/>
  
  <!-- Gradient definition -->
  <defs>
    <linearGradient id="gradient" x1="0%" y1="0%" x2="100%" y2="100%">
      <stop offset="0%" style="stop-color:#3b82f6;stop-opacity:1" />
      <stop offset="100%" style="stop-color:#1e40af;stop-opacity:1" />
    </linearGradient>
  </defs>
  
  <!-- Water drop shape -->
  <path d="M 100 40 Q 100 30 90 30 Q 80 30 80 40 Q 80 50 70 60 Q 60 70 60 90 Q 60 110 80 130 Q 100 150 100 160 Q 100 150 120 130 Q 140 110 140 90 Q 140 70 130 60 Q 120 50 120 40 Q 120 30 110 30 Q 100 30 100 40 Z" 
        fill="#ffffff" opacity="0.9"/>
  
  <!-- Seal/Stamp effect -->
  <circle cx="100" cy="100" r="75" fill="none" stroke="#ffffff" stroke-width="2" opacity="0.3"/>
  <circle cx="100" cy="100" r="60" fill="none" stroke="#ffffff" stroke-width="1.5" opacity="0.2"/>
  
  <!-- Text "AS" for AquaSeal -->
  <text x="100" y="115" font-family="Arial, sans-serif" font-size="48" font-weight="bold" fill="#2563eb" text-anchor="middle" opacity="0.8">AS</text>
</svg>

