<svg xmlns="http://www.w3.org/2000/svg" viewBox="0 0 200 200" width="200" height="200">

  <defs>
    <linearGradient id="purpleGradient" x1="0%" y1="0%" x2="100%" y2="100%">
      <stop offset="0%" style="stop-color:#8B5CF6;stop-opacity:1" />
      <stop offset="100%" style="stop-color:#6B46C1;stop-opacity:1" />
    </linearGradient>
    <linearGradient id="waterGradient" x1="0%" y1="0%" x2="0%" y2="100%">
      <stop offset="0%" style="stop-color:#4c1d95;stop-opacity:0.4" />
      <stop offset="50%" style="stop-color:#7c3aed;stop-opacity:0.6" />
      <stop offset="100%" style="stop-color:#8B5CF6;stop-opacity:0.9" />
    </linearGradient>
    <clipPath id="circleClip">
      <circle cx="100" cy="100" r="95"/>
    </clipPath>
  </defs>
  
  <!-- Background Circle -->
  <circle cx="100" cy="100" r="95" fill="#0a0a12" stroke="url(#purpleGradient)" stroke-width="3"/>
  
  <!-- Water filling the circle (clipped) -->
  <g clip-path="url(#circleClip)">
    <!-- Multiple water wave layers -->
    <path d="M 0 80 Q 25 70, 50 80 T 100 80 T 150 80 T 200 80 L 200 200 L 0 200 Z" 
          fill="url(#waterGradient)" opacity="0.3"/>
    <path d="M 0 95 Q 25 85, 50 95 T 100 95 T 150 95 T 200 95 L 200 200 L 0 200 Z" 
          fill="url(#waterGradient)" opacity="0.4"/>
    <path d="M 0 110 Q 25 100, 50 110 T 100 110 T 150 110 T 200 110 L 200 200 L 0 200 Z" 
          fill="url(#waterGradient)" opacity="0.5"/>
    <path d="M 0 125 Q 25 115, 50 125 T 100 125 T 150 125 T 200 125 L 200 200 L 0 200 Z" 
          fill="url(#waterGradient)" opacity="0.6"/>
    <path d="M 0 140 Q 25 130, 50 140 T 100 140 T 150 140 T 200 140 L 200 200 L 0 200 Z" 
          fill="url(#waterGradient)" opacity="0.75"/>
    <path d="M 0 155 Q 25 145, 50 155 T 100 155 T 150 155 T 200 155 L 200 200 L 0 200 Z" 
          fill="url(#waterGradient)" opacity="0.85"/>
    
    <!-- Bubbles rising in water -->
    <circle cx="45" cy="150" r="3" fill="#a78bfa" opacity="0.4"/>
    <circle cx="155" cy="145" r="2.5" fill="#a78bfa" opacity="0.4"/>
    <circle cx="35" cy="130" r="2" fill="#a78bfa" opacity="0.3"/>
    <circle cx="165" cy="135" r="2.5" fill="#a78bfa" opacity="0.3"/>
    <circle cx="50" cy="115" r="2" fill="#c4b5fd" opacity="0.3"/>
    <circle cx="150" cy="120" r="2" fill="#c4b5fd" opacity="0.3"/>
  </g>
  
  <!-- Seal swimming in water (scaled up 40% for prominence) -->
  <!-- Body -->
  <ellipse cx="100" cy="105" rx="48" ry="38" fill="url(#purpleGradient)"/>
  
  <!-- Head -->
  <circle cx="100" cy="65" r="28" fill="url(#purpleGradient)"/>
  
  <!-- Snout -->
  <ellipse cx="100" cy="74" rx="16" ry="14" fill="#a78bfa"/>
  
  <!-- Eyes -->
  <circle cx="90" cy="62" r="4" fill="#0a0a12"/>
  <circle cx="110" cy="62" r="4" fill="#0a0a12"/>
  <circle cx="91.5" cy="60.5" r="2" fill="#ffffff"/>
  <circle cx="111.5" cy="60.5" r="2" fill="#ffffff"/>
  
  <!-- Nose -->
  <circle cx="100" cy="78" r="3" fill="#0a0a12"/>
  
  <!-- Whiskers -->
  <line x1="82" y1="72" x2="62" y2="69" stroke="#a78bfa" stroke-width="2" opacity="0.8"/>
  <line x1="82" y1="76" x2="62" y2="79" stroke="#a78bfa" stroke-width="2" opacity="0.8"/>
  <line x1="118" y1="72" x2="138" y2="69" stroke="#a78bfa" stroke-width="2" opacity="0.8"/>
  <line x1="118" y1="76" x2="138" y2="79" stroke="#a78bfa" stroke-width="2" opacity="0.8"/>
  
  <!-- Front Flippers (swimming pose) -->
  <ellipse cx="68" cy="112" rx="14" ry="24" fill="#a78bfa" transform="rotate(-25 68 112)"/>
  <ellipse cx="132" cy="112" rx="14" ry="24" fill="#a78bfa" transform="rotate(25 132 112)"/>
  
  <!-- Back Flipper (tail) -->
  <ellipse cx="100" cy="143" rx="28" ry="14" fill="#a78bfa"/>
  
  <!-- Water Splash/Swimming effects around seal -->
  <circle cx="58" cy="80" r="5" fill="#c4b5fd" opacity="0.6"/>
  <circle cx="52" cy="95" r="4" fill="#a78bfa" opacity="0.5"/>
  <circle cx="142" cy="83" r="5" fill="#c4b5fd" opacity="0.6"/>
  <circle cx="148" cy="98" r="4" fill="#a78bfa" opacity="0.5"/>
  <circle cx="70" cy="130" r="3.5" fill="#a78bfa" opacity="0.4"/>
  <circle cx="130" cy="132" r="3.5" fill="#a78bfa" opacity="0.4"/>
  
  <!-- Shield/Security Element above seal -->
  <path d="M 100 25 L 115 32 L 115 46 Q 115 58, 100 62 Q 85 58, 85 46 L 85 32 Z" 
        fill="none" stroke="#a78bfa" stroke-width="3" opacity="0.7"/>
  <circle cx="100" cy="43" r="3" fill="#a78bfa" opacity="0.7"/>
</svg>
